<?xml version="1.0" encoding="utf-8"?>
<!-- Generator: Adobe Illustrator 26.0.1, SVG Export Plug-In . SVG Version: 6.00 Build 0)  -->
<svg version="1.1" id="Layer_1" xmlns="http://www.w3.org/2000/svg" xmlns:xlink="http://www.w3.org/1999/xlink" x="0px" y="0px"
	 viewBox="0 0 499.7 220.5" style="enable-background:new 0 0 499.7 220.5;" xml:space="preserve">
<style type="text/css">
	.st0{fill:#FFE400;}
	.st1{fill:#007AC2;}
	.st2{fill:#56AF31;}
</style>
<g>
	<path class="st0" d="M14.2,43.4c0,0,88.4-25.7,161.7-16.7c104.7,12.9,118.1,29,180.5,34.5c43.5,3.9,83-1.1,83-1.1
		s-23.8,14.2-93.5,12.7C243.7,70.9,216,19.2,14.2,43.4z"/>
	<path class="st1" d="M18.1,45.1c0,0,64.3-10.4,141.8-2c37.6,4.1,63.8,10.6,118.8,24.8c41,10.6,90.1,7.4,90.1,7.4s-34.7,9.8-103.7,4
		C163.6,70.7,167.3,44.4,18.1,45.1z"/>
	<path class="st2" d="M12,41C12,41,76.7-0.8,188,7c111.3,7.8,125.1,31.3,181.5,37.7c44,5,118.2-5.1,118.2-5.1s-27.1,24-114,19.7
		C271.9,54.3,193-10.9,12,41z"/>
	<g>
		<path class="st2" d="M54.3,124.4c-3-1.2-6-1.8-8.5-1.8c-8.8,0-13.7,7.9-13.7,16c0,7.6,4.1,16,14.2,16c2.7,0,6-0.8,8.4-2.4l0.6,7
			c-3.3,1.5-7,1.8-9.8,1.8c-12.9,0-21.7-10.1-21.7-22.3c0-12.9,8.7-22.3,21.7-22.3c3.2,0,7.3,0.8,9.5,1.7L54.3,124.4z"/>
		<path class="st2" d="M72.3,120.3c3.9-2.3,8.6-4,14-4c12.2,0,17.1,6,17.1,17.6v17.6c0,4.8,0.2,7.1,0.3,8.4h-7.4v-5.5h-0.2
			c-1.8,2.6-6,6.5-13.2,6.5c-9.2,0-15.6-4-15.6-13.3c0-10.7,11.7-14,19.8-14c3.1,0,5.3,0,8.4,0.2c0-7.4-2.7-11.1-10.5-11.1
			c-4.4,0-9.2,1.7-12.4,4.3L72.3,120.3z M95.6,139.6c-1.7,0-3.3-0.2-5-0.2c-4.3,0-14.8,0.7-14.8,8.2c0,4.5,4.3,6.9,7.9,6.9
			c7.8,0,11.9-4.8,11.9-11.2V139.6z"/>
		<path class="st2" d="M119.6,151.5c3.1,2,7.5,3,9.8,3c3.6,0,8-1.5,8-6.1c0-7.8-18.4-7.1-18.4-19c0-8.9,6.6-13.1,15-13.1
			c3.7,0,6.7,0.8,9.8,1.7l-0.7,6.9c-1.8-1.1-6.4-2.2-8.3-2.2c-4,0-7.5,1.7-7.5,5.2c0,8.7,18.4,6.2,18.4,19.8
			c0,9.1-7.3,13.3-14.9,13.3c-4,0-8.1-0.4-11.7-2.3L119.6,151.5z"/>
		<path class="st2" d="M183.9,123.6h-11.3v23.3c0,4.9,3,7.6,6.6,7.6c2.4,0,4.2-0.8,5.3-1.5v6.7c-1.8,0.5-4.2,1.2-6.7,1.2
			c-8.1,0-13.1-3.8-13.1-12.4v-24.9h-9.6v-6.4h9.6v-9.9l7.9-2.5v12.4h11.3L183.9,123.6L183.9,123.6z"/>
		<path class="st2" d="M200.7,97.2h7.9v62.6h-7.9V97.2z"/>
		<path class="st2" d="M261.6,158.1c-3,1.1-6.4,2.8-13.4,2.8c-15.1,0-22-9.2-22-23.1c0-12.6,7.9-21.5,20-21.5
			c14.2,0,18.8,10.4,18.8,24h-30.4c0,8.4,6.6,14.2,14,14.2c5.2,0,11.2-2.7,13.1-4.3L261.6,158.1L261.6,158.1z M256.5,134.5
			c0-6.5-3.8-11.9-10.6-11.9c-7.7,0-10.9,6.4-11.4,11.9H256.5z"/>
		<path class="st1" d="M280.8,117.3h5.3l-0.3,7.8h0.2c1.3-2.3,4.6-8.8,13.6-8.8c12.5,0,17.5,9.4,17.5,22.3
			c0,12.6-5.8,22.3-17.5,22.3c-6.7,0-10.7-2.8-13.3-8.3h-0.2v24.8h-5.3V117.3z M298.7,120.8c-9.4,0-12.6,10-12.6,17.8
			s3.3,17.8,12.6,17.8c10,0,12.6-9.5,12.6-17.8C311.3,130.3,308.7,120.8,298.7,120.8z"/>
		<path class="st1" d="M350.4,116.3c13.8,0,19.9,10.7,19.9,22.3c0,11.6-6.1,22.3-19.9,22.3c-13.8,0-19.9-10.7-19.9-22.3
			C330.5,127,336.6,116.3,350.4,116.3z M350.4,156.3c9.2,0,14.1-7.9,14.1-17.8c0-9.9-4.9-17.8-14.1-17.8c-9.2,0-14.1,7.9-14.1,17.8
			C336.2,148.4,341.2,156.3,350.4,156.3z"/>
		<path class="st1" d="M391.4,105.9h-5.3v-7h5.3V105.9z M386.2,117.3h5.3v42.6h-5.3V117.3z"/>
		<path class="st1" d="M410.7,127.3c0-3.3,0-6.6-0.3-10h5.1v7.6h0.2c1.8-3.8,4.9-8.6,13.8-8.6c10.5,0,14.5,7,14.5,16.4v27.2h-5.3
			V134c0-8-2.8-13.2-10.1-13.2c-9.6,0-12.6,8.4-12.6,15.5v23.6h-5.3L410.7,127.3L410.7,127.3z"/>
		<path class="st1" d="M481.6,121.8h-9.7v27.6c0,3.8,1.4,7,5.7,7c2,0,3.3-0.4,4.8-1l0.3,4.3c-1.2,0.5-3.8,1.2-6.4,1.2
			c-9.3,0-9.7-6.4-9.7-14.2v-24.9h-8.3v-4.5h8.3V107l5.3-1.8v12.1h9.7L481.6,121.8L481.6,121.8z"/>
	</g>
</g>
<g>
	<path class="st1" d="M26.1,191.5l1.9-0.4c0,0,0.3,1,0.3,3v2.9c0,0.6-0.1,1.4-0.1,1.4c1.2-1.2,2.2-1.7,3.6-1.7c3,0,4.8,2.4,4.8,6.3
		c0,4-2,6.7-5,6.7c-1.3,0-2.7-0.7-3.4-1.6c-0.1,0.5-0.1,0.9-0.3,1.4H26c0.3-0.6,0.4-1.4,0.4-3.1V194
		C26.4,192.4,26.1,191.5,26.1,191.5z M28.4,206.5c0.7,0.9,1.9,1.5,3.1,1.5c0.8,0,1.8-0.5,2.2-1.1c0.4-0.7,0.9-1.9,0.9-4
		c0-1.6-0.2-2.6-0.7-3.4c-0.5-0.7-1.4-1.1-2.3-1.1c-1.2,0-2.5,0.7-3.1,1.6V206.5z"/>
	<path class="st1" d="M48.2,206.9l0.8,1.2c-1.1,1-2.6,1.5-4.2,1.5c-3.5,0-5.5-2.5-5.5-6.6c0-2.1,0.4-3.5,1.5-4.7
		c1-1.2,2.2-1.7,3.7-1.7c1.3,0,2.5,0.5,3.4,1.4c1.1,1.1,1.4,2.3,1.4,5.3v0.3h-7.8v0.3c0,1.2,0.2,2.1,0.6,2.7
		c0.7,1.1,1.8,1.5,3.1,1.5C46.3,208,47.3,207.7,48.2,206.9z M41.5,202h5.7c0-1.4-0.2-2.2-0.6-2.8c-0.4-0.7-1.3-1.1-2.2-1.1
		C42.6,198.1,41.6,199.4,41.5,202z"/>
	<path class="st1" d="M52.3,197.2l1.9-0.5c0,0,0.4,0.9,0.4,2c1.3-1.3,2.6-1.9,3.9-1.9c1.3,0,2.6,0.7,3.1,1.8c0.2,0.5,0.3,1,0.3,1.5
		v9.5h-2V201c0-1.3-0.1-1.6-0.4-2.1c-0.3-0.3-0.8-0.5-1.4-0.5c-1,0-2.6,0.8-3.5,1.8v9.3h-1.9v-9.6C52.8,198,52.3,197.2,52.3,197.2z"
		/>
	<path class="st1" d="M71.8,193.4c-0.5-0.3-1.2-0.6-1.8-0.6c-1.1,0-1.7,0.8-1.7,2.2v1.9h3.5l-0.6,1.5h-2.9v11h-2.1v-11H65v-1.5h1.2
		v-2c0-1.9,0.8-2.6,1.4-3.1c0.6-0.5,1.3-0.6,2.2-0.6c1.1,0,2,0.2,2.7,0.7L71.8,193.4z"/>
	<path class="st1" d="M75.4,206.9c0,1,0.1,1.2,0.7,1.2c0.1,0,0.2,0,0.2,0l0.4,1.3c-0.5,0.2-0.7,0.3-1.2,0.3c-0.6,0-1.1-0.2-1.5-0.5
		c-0.4-0.4-0.6-0.9-0.6-1.8v-13.2c0-1.6-0.3-2.5-0.3-2.5l1.9-0.4c0,0,0.3,1,0.3,3L75.4,206.9L75.4,206.9z"/>
	<path class="st1" d="M87.8,206.9l0.8,1.2c-1.1,1-2.6,1.5-4.2,1.5c-3.5,0-5.5-2.5-5.5-6.6c0-2.1,0.4-3.5,1.5-4.7
		c1-1.2,2.2-1.7,3.7-1.7c1.4,0,2.5,0.5,3.4,1.4c1.1,1.1,1.4,2.3,1.4,5.3v0.3H81v0.3c0,1.2,0.1,2.1,0.6,2.7c0.7,1.1,1.9,1.5,3.1,1.5
		C85.9,208,86.9,207.7,87.8,206.9z M81,202h5.7c0-1.4-0.2-2.2-0.6-2.8c-0.4-0.7-1.3-1.1-2.2-1.1C82.1,198.1,81.1,199.4,81,202z"/>
	<path class="st1" d="M100.5,206.9l0.8,1.2c-1.1,1-2.6,1.5-4.2,1.5c-3.5,0-5.5-2.5-5.5-6.6c0-2.1,0.4-3.5,1.5-4.7
		c1-1.2,2.2-1.7,3.7-1.7c1.4,0,2.5,0.5,3.4,1.4c1.1,1.1,1.4,2.3,1.4,5.3v0.3h-7.8v0.3c0,1.2,0.1,2.1,0.6,2.7
		c0.7,1.1,1.9,1.5,3.1,1.5C98.6,208,99.6,207.7,100.5,206.9z M93.7,202h5.7c0-1.4-0.2-2.2-0.6-2.8c-0.4-0.7-1.3-1.1-2.2-1.1
		C94.8,198.1,93.8,199.4,93.7,202z"/>
	<path class="st1" d="M110.4,196.9l-0.6,1.5h-2.6v8c0,1.4,0.4,1.9,1.6,1.9c0.6,0,0.9-0.1,1.2-0.2l0.3,1.2c-0.6,0.3-1.3,0.5-2.2,0.5
		c-0.6,0-1.1-0.1-1.6-0.4c-0.9-0.4-1.2-1.2-1.2-2.5v-8.6h-1.6v-1.5h1.6c0-1.2,0.2-3.2,0.2-3.2l2.1-0.5c0,0-0.2,2-0.2,3.6
		L110.4,196.9L110.4,196.9z"/>
	<path class="st1" d="M124.2,190.5h1.6v19.4h-1.6V190.5z"/>
	<path class="st1" d="M149,198l-1.1,1.4c-0.9-0.7-1.4-1-2.4-1c-1,0-1.9,0.5-2.4,1.4c-0.5,0.9-0.7,2.2-0.7,4.1c0,2.8,1.1,4.3,3.1,4.3
		c1,0,1.9-0.5,2.7-1.4l1.1,1.2c-1.1,1.2-2.2,1.6-3.8,1.6c-1.8,0-3.1-0.6-4-1.9c-0.8-1.2-1.2-2.6-1.2-4.4c0-2.7,0.8-4.2,1.9-5.3
		c1-1,2.1-1.5,3.4-1.5C147.2,196.6,148.1,197.2,149,198z"/>
	<path class="st1" d="M151.8,198.3c1.6-1.1,3.4-1.7,5.2-1.7c1.7,0,2.9,0.7,3.5,2c0.3,0.7,0.3,1.6,0.3,2.8l-0.1,4.1
		c-0.1,2,0.1,2.5,1,3.1l-1,1.4c-0.9-0.3-1.5-1-1.7-1.8c-1.2,1.2-2.2,1.7-3.6,1.7c-3.1,0-4-1.9-4-3.6c0-2.8,2.4-4.5,6.6-4.5
		c0.5,0,0.9,0,0.9,0v-0.9c0-1.1-0.1-1.5-0.4-2c-0.4-0.5-0.9-0.7-1.7-0.7c-1.4,0-3.2,0.8-4,1.5L151.8,198.3z M158.8,203.1
		c-0.3,0-0.6,0-1,0c-3.2,0-4.3,1.1-4.3,3c0,1.5,0.7,2.3,2.1,2.3c1.3,0,2.4-0.8,3-2L158.8,203.1z"/>
	<path class="st1" d="M164.4,197.2l1.9-0.5c0,0,0.4,0.9,0.4,2c1.3-1.3,2.6-1.9,3.9-1.9c1.4,0,2.6,0.7,3.1,1.8c0.2,0.5,0.3,1,0.3,1.5
		v9.5h-2V201c0-1.3-0.1-1.6-0.4-2.1c-0.3-0.3-0.8-0.5-1.4-0.5c-1,0-2.6,0.8-3.5,1.8v9.3h-1.9v-9.6
		C164.9,198,164.4,197.2,164.4,197.2z"/>
	<path class="st1" d="M176.2,197l2-0.4l2.9,8.6c0.4,1,0.6,2.1,0.6,2.1h0.1c0,0,0.2-1,0.6-2.1l2.9-8.3h2.1l-4.7,12.6h-1.9L176.2,197z
		"/>
	<path class="st1" d="M197.7,206.9l0.8,1.2c-1.1,1-2.6,1.5-4.2,1.5c-3.5,0-5.5-2.5-5.5-6.6c0-2.1,0.4-3.5,1.5-4.7
		c1-1.2,2.2-1.7,3.7-1.7c1.4,0,2.5,0.5,3.4,1.4c1.1,1.1,1.4,2.3,1.4,5.3v0.3h-7.8v0.3c0,1.2,0.1,2.1,0.6,2.7
		c0.7,1.1,1.9,1.5,3.1,1.5C195.8,208,196.8,207.7,197.7,206.9z M190.9,202h5.7c0-1.4-0.2-2.2-0.6-2.8c-0.4-0.7-1.3-1.1-2.2-1.1
		C192,198.1,191,199.4,190.9,202z"/>
	<path class="st1" d="M200.7,197.2l1.9-0.6l2.5,8.1c0.4,1.2,0.8,3.1,0.8,3.1h0c0,0,0.5-1.6,0.8-2.6l2.5-8.2h2.2l-4.3,12.9
		c-0.9,2.5-1.9,4.2-4,4.7l-0.6-1.3c1.6-0.5,2.2-1.3,2.9-3.8l-0.8,0.1c-0.1-0.8-0.8-3.2-1.2-4.5L200.7,197.2z"/>
	<path class="st1" d="M225.1,190.5h1.6v19.4h-1.6V190.5z"/>
	<path class="st1" d="M241.7,191.5l2-0.4c0,0,0.3,1,0.3,3v2.9c0,0.8-0.1,1.7-0.1,1.7c1.1-1,2.5-2,4.2-2c1.5,0,2.9,0.8,3.2,2
		c0.1,0.5,0.2,0.9,0.2,1.8v8.9h-1.9v-8.6c0-0.9-0.1-1.5-0.5-1.9c-0.3-0.3-0.8-0.5-1.5-0.5c-1.2,0-2.5,0.8-3.6,2.1v8.9h-2V194
		C242.1,192.4,241.7,191.5,241.7,191.5z"/>
	<path class="st1" d="M255.1,198.3c1.6-1.1,3.4-1.7,5.2-1.7c1.7,0,2.9,0.7,3.5,2c0.3,0.7,0.3,1.6,0.3,2.8l-0.1,4.1
		c0,2,0.1,2.5,1,3.1l-1,1.4c-0.9-0.3-1.5-1-1.7-1.8c-1.2,1.2-2.2,1.7-3.6,1.7c-3.1,0-4-1.9-4-3.6c0-2.8,2.4-4.5,6.6-4.5
		c0.5,0,0.9,0,0.9,0v-0.9c0-1.1,0-1.5-0.4-2c-0.4-0.5-0.9-0.7-1.7-0.7c-1.4,0-3.2,0.8-4,1.5L255.1,198.3z M262.1,203.1
		c-0.3,0-0.6,0-1,0c-3.2,0-4.3,1.1-4.3,3c0,1.5,0.7,2.3,2.1,2.3c1.3,0,2.5-0.8,3-2L262.1,203.1z"/>
	<path class="st1" d="M277.6,191.4v13.9c0,2.1,0.1,3.3,0.4,4h-2c0,0-0.2-0.6-0.3-1.3c-0.9,1-1.9,1.5-3.3,1.5c-3.2,0-5.1-2.3-5.1-6.3
		c0-2.6,0.9-4.6,2.6-5.8c0.8-0.5,1.5-0.8,2.4-0.8c1.4,0,2.6,0.6,3.4,1.6c0,0,0-1,0-1.9v-5.2L277.6,191.4z M275.7,199.6
		c-0.6-0.9-1.5-1.3-3-1.3c-1,0-1.8,0.5-2.3,1.3c-0.6,1-0.8,1.9-0.8,3.6c0,1.5,0.1,2.5,0.5,3.3c0.6,1,1.4,1.5,2.5,1.5
		c1,0,1.6-0.2,2.4-0.8c0.5-0.4,0.8-0.9,0.8-0.9L275.7,199.6L275.7,199.6z"/>
	<path class="st1" d="M283.9,206.9c0,1,0.1,1.2,0.7,1.2c0.1,0,0.2,0,0.2,0l0.4,1.3c-0.5,0.2-0.7,0.3-1.2,0.3c-0.6,0-1.1-0.2-1.5-0.5
		c-0.4-0.4-0.6-0.9-0.6-1.8v-13.2c0-1.6-0.3-2.5-0.3-2.5l2-0.4c0,0,0.3,1,0.3,3V206.9z"/>
	<path class="st1" d="M296.3,206.9l0.8,1.2c-1.1,1-2.6,1.5-4.2,1.5c-3.5,0-5.5-2.5-5.5-6.6c0-2.1,0.5-3.5,1.5-4.7
		c1-1.2,2.2-1.7,3.7-1.7c1.4,0,2.5,0.5,3.4,1.4c1.1,1.1,1.4,2.3,1.4,5.3v0.3h-7.8v0.3c0,1.2,0.1,2.1,0.6,2.7
		c0.7,1.1,1.9,1.5,3.1,1.5C294.4,208,295.4,207.7,296.3,206.9z M289.5,202h5.7c0-1.4-0.2-2.2-0.6-2.8c-0.4-0.7-1.3-1.1-2.2-1.1
		C290.6,198.1,289.6,199.4,289.5,202z"/>
	<path class="st1" d="M301.9,191.5c0.9,0,1.5,0.7,1.5,1.5s-0.7,1.5-1.5,1.5s-1.5-0.7-1.5-1.5C300.3,192.2,301,191.5,301.9,191.5z
		 M300.8,197l2-0.3v12.8h-2V197z"/>
	<path class="st1" d="M316.7,196.8l1.2,1.2c-0.8,0.5-1.4,0.8-2.1,0.8c-0.3,0-0.6,0-0.9-0.1c0.5,0.6,0.8,1.3,0.8,2.1
		c0,1.4-0.7,2.7-1.9,3.4c-0.6,0.4-1.4,0.5-2.3,0.5c-1.7,0.6-2.2,1-2.2,1.5c0,0.4,0.4,0.6,1,0.6h2c1.5,0,2.2,0.2,3,0.7
		c1,0.7,1.4,1.5,1.4,2.6c0,2.7-1.9,3.9-5,3.9c-3.9,0-5.4-1.4-5.4-3.2c0-0.5,0.1-0.8,0.2-1.3l2-0.2c-0.2,0.3-0.4,0.7-0.4,1.1
		c0,0.6,0.3,1.2,0.7,1.5c0.6,0.4,1.5,0.6,2.5,0.6c1.9,0,3-0.6,3-2.2c0-0.7-0.2-1.2-0.7-1.5c-0.5-0.3-1.2-0.5-2.5-0.5
		c-0.5,0-1.5,0-1.9,0c-1.5,0-2.4-0.7-2.4-1.8c0-1,0.5-1.6,2.2-2.1c-1.7-0.5-2.8-2-2.8-3.6c0-2.5,1.9-4.2,4.6-4.2
		c1.9,0,2.3,0.7,3.8,0.7C315.6,197.4,316.1,197.2,316.7,196.8z M311.1,198.3c-1.5,0-2.4,0.8-2.4,2.5c0,1.6,0.8,2.4,2.4,2.4
		c1.5,0,2.2-0.8,2.2-2.5C313.4,199.1,312.8,198.3,311.1,198.3z"/>
	<path class="st1" d="M319.7,191.5l2-0.4c0,0,0.3,1,0.3,3v2.9c0,0.8-0.1,1.7-0.1,1.7c1.1-1,2.5-2,4.2-2c1.5,0,2.9,0.8,3.2,2
		c0.1,0.5,0.2,0.9,0.2,1.8v8.9h-1.9v-8.6c0-0.9-0.1-1.5-0.5-1.9c-0.3-0.3-0.8-0.5-1.5-0.5c-1.2,0-2.5,0.8-3.6,2.1v8.9h-2V194
		C320,192.4,319.7,191.5,319.7,191.5z"/>
	<path class="st1" d="M344.7,190.5h1.6v19.4h-1.6V190.5z"/>
	<path class="st1" d="M367,196.9l-0.6,1.5h-2.6v8c0,1.4,0.4,1.9,1.6,1.9c0.5,0,0.9-0.1,1.2-0.2l0.3,1.2c-0.6,0.3-1.3,0.5-2.2,0.5
		c-0.6,0-1.1-0.1-1.6-0.4c-0.9-0.4-1.2-1.2-1.2-2.5v-8.6h-1.6v-1.5h1.6c0-1.2,0.2-3.2,0.2-3.2l2-0.5c0,0-0.2,2-0.2,3.6L367,196.9
		L367,196.9z"/>
	<path class="st1" d="M369.4,191.5l2-0.4c0,0,0.3,1,0.3,3v2.9c0,0.8-0.1,1.7-0.1,1.7c1.1-1,2.5-2,4.2-2c1.5,0,2.9,0.8,3.2,2
		c0.1,0.5,0.2,0.9,0.2,1.8v8.9h-1.9v-8.6c0-0.9-0.1-1.5-0.5-1.9c-0.3-0.3-0.8-0.5-1.5-0.5c-1.2,0-2.5,0.8-3.6,2.1v8.9h-2V194
		C369.7,192.4,369.4,191.5,369.4,191.5z"/>
	<path class="st1" d="M383.1,197l1.9-0.4v9c0,1.2,0.2,1.7,0.8,2.1c0.4,0.3,1,0.4,1.5,0.4c1.2,0,2.5-0.9,3.2-2.2v-8.8l1.9-0.3v9.1
		c0,1.6,0.2,2.2,0.9,2.8l-1.2,1.3c-0.8-0.7-1.2-1.2-1.4-2c-1,1.3-2.2,1.9-4,1.9c-1.6,0-2.8-0.7-3.3-1.8c-0.2-0.5-0.3-1.1-0.3-1.9
		V197z"/>
	<path class="st1" d="M396.4,197.2l1.9-0.5c0,0,0.5,0.9,0.5,2c1.3-1.3,2.6-1.9,3.9-1.9c1.4,0,2.5,0.7,3.1,1.8c0.2,0.5,0.3,1,0.3,1.5
		v9.5h-2V201c0-1.3-0.1-1.6-0.5-2.1c-0.3-0.3-0.8-0.5-1.4-0.5c-1,0-2.5,0.8-3.5,1.8v9.3h-1.9v-9.6
		C396.9,198,396.4,197.2,396.4,197.2z"/>
	<path class="st1" d="M419.6,191.4v13.9c0,2.1,0.1,3.3,0.4,4h-2c0,0-0.2-0.6-0.3-1.3c-0.9,1-1.9,1.5-3.3,1.5c-3.2,0-5.1-2.3-5.1-6.3
		c0-2.6,0.9-4.6,2.6-5.8c0.8-0.5,1.5-0.8,2.4-0.8c1.4,0,2.6,0.6,3.4,1.6c0,0,0-1,0-1.9v-5.2L419.6,191.4z M417.6,199.6
		c-0.6-0.9-1.5-1.3-3-1.3c-1,0-1.8,0.5-2.3,1.3c-0.6,1-0.8,1.9-0.8,3.6c0,1.5,0.1,2.5,0.5,3.3c0.6,1,1.4,1.5,2.5,1.5
		c1,0,1.6-0.2,2.4-0.8c0.5-0.4,0.8-0.9,0.8-0.9L417.6,199.6L417.6,199.6z"/>
	<path class="st1" d="M431.9,206.9l0.8,1.2c-1.1,1-2.6,1.5-4.2,1.5c-3.5,0-5.5-2.5-5.5-6.6c0-2.1,0.5-3.5,1.5-4.7
		c1-1.2,2.2-1.7,3.7-1.7c1.4,0,2.5,0.5,3.4,1.4c1.1,1.1,1.4,2.3,1.4,5.3v0.3h-7.8v0.3c0,1.2,0.1,2.1,0.6,2.7
		c0.7,1.1,1.9,1.5,3.1,1.5C430.1,208,431.1,207.7,431.9,206.9z M425.2,202h5.7c0-1.4-0.2-2.2-0.6-2.8c-0.4-0.7-1.3-1.1-2.2-1.1
		C426.3,198.1,425.3,199.4,425.2,202z"/>
	<path class="st1" d="M436.1,197.1l2-0.5c0,0,0.5,1,0.4,2c0.9-1.3,2.2-2.1,3.5-2.1c0.3,0,0.7,0.1,0.7,0.1l-0.8,2.1
		c-0.1,0-0.4-0.1-0.5-0.1c-0.8,0-1.5,0.3-2.1,0.9c-0.6,0.6-0.7,1-0.7,2v7.8h-2v-9.6C436.5,198,436.1,197.1,436.1,197.1z"/>
	<path class="st1" d="M452.4,197.5l-0.7,1.5c-1.1-0.5-2-0.9-3.1-0.9c-1.4,0-2.4,0.8-2.4,2c0,1,0.5,1.5,1.8,1.8l1.6,0.4
		c2.2,0.5,3.3,1.6,3.3,3.5c0,2.4-1.9,4.1-4.7,4.1c-1.6,0-3.3-0.5-4.6-1.2l0.8-1.5c1.3,0.8,2.6,1.2,4,1.2c1.5,0,2.5-0.8,2.5-2.1
		c0-1.1-0.6-1.8-2-2l-1.5-0.3c-2-0.4-3.2-1.7-3.2-3.4c0-2.2,1.8-3.8,4.4-3.8C449.9,196.4,451.4,196.9,452.4,197.5z"/>
	<path class="st1" d="M458.2,206.9c0,1,0.2,1.2,0.7,1.2c0.1,0,0.2,0,0.2,0l0.4,1.3c-0.5,0.2-0.7,0.3-1.2,0.3c-0.6,0-1.1-0.2-1.5-0.5
		c-0.4-0.4-0.6-0.9-0.6-1.8v-13.2c0-1.6-0.3-2.5-0.3-2.5l2-0.4c0,0,0.3,1,0.3,3L458.2,206.9L458.2,206.9z"/>
	<path class="st1" d="M470.6,206.9l0.8,1.2c-1.1,1-2.6,1.5-4.2,1.5c-3.5,0-5.5-2.5-5.5-6.6c0-2.1,0.5-3.5,1.5-4.7
		c1-1.2,2.2-1.7,3.7-1.7c1.3,0,2.5,0.5,3.4,1.4c1.1,1.1,1.4,2.3,1.4,5.3v0.3h-7.8v0.3c0,1.2,0.2,2.1,0.6,2.7
		c0.7,1.1,1.8,1.5,3.1,1.5C468.7,208,469.7,207.7,470.6,206.9z M463.9,202h5.7c0-1.4-0.2-2.2-0.6-2.8c-0.4-0.7-1.3-1.1-2.2-1.1
		C465,198.1,464,199.4,463.9,202z"/>
	<path class="st1" d="M473.6,197.2l1.9-0.6l2.5,8.1c0.4,1.2,0.8,3.1,0.8,3.1h0c0,0,0.5-1.6,0.8-2.6l2.5-8.2h2.2l-4.3,12.9
		c-0.8,2.5-1.8,4.2-4,4.7l-0.6-1.3c1.6-0.5,2.2-1.3,2.9-3.8l-0.8,0.1c-0.2-0.8-0.8-3.2-1.2-4.5L473.6,197.2z"/>
</g>
</svg>
